<?xml version="1.0" encoding="UTF-8" standalone="no"?>
<!-- Created with Inkscape (http://www.inkscape.org/) -->

<svg
   xmlns:dc="http://purl.org/dc/elements/1.1/"
   xmlns:cc="http://creativecommons.org/ns#"
   xmlns:rdf="http://www.w3.org/1999/02/22-rdf-syntax-ns#"
   xmlns:svg="http://www.w3.org/2000/svg"
   xmlns="http://www.w3.org/2000/svg"
   xmlns:sodipodi="http://sodipodi.sourceforge.net/DTD/sodipodi-0.dtd"
   xmlns:inkscape="http://www.inkscape.org/namespaces/inkscape"
   width="11.13896mm"
   height="12.197289mm"
   viewBox="0 0 11.13896 12.197289"
   version="1.1"
   id="svg895"
   inkscape:version="0.92.4 (5da689c313, 2019-01-14)"
   sodipodi:docname="cr.loo.svg">
  <defs
     id="defs889" />
  <sodipodi:namedview
     id="base"
     pagecolor="#ffffff"
     bordercolor="#666666"
     borderopacity="1.0"
     inkscape:pageopacity="0.0"
     inkscape:pageshadow="2"
     inkscape:zoom="15.839192"
     inkscape:cx="17.463325"
     inkscape:cy="23.270349"
     inkscape:document-units="mm"
     inkscape:current-layer="layer1"
     showgrid="false"
     showborder="true"
     inkscape:window-width="1920"
     inkscape:window-height="1017"
     inkscape:window-x="-8"
     inkscape:window-y="-8"
     inkscape:window-maximized="1" />
  <metadata
     id="metadata892">
    <rdf:RDF>
      <cc:Work
         rdf:about="">
        <dc:format>image/svg+xml</dc:format>
        <dc:type
           rdf:resource="http://purl.org/dc/dcmitype/StillImage" />
        <dc:title></dc:title>
      </cc:Work>
    </rdf:RDF>
  </metadata>
  <g
     inkscape:label="Layer 1"
     inkscape:groupmode="layer"
     id="layer1"
     transform="translate(-72.293619,-98.889451)">
    <path
       style="fill:#ee8122;stroke-width:0.26458332"
       inkscape:connector-curvature="0"
       class="st0"
       d="m 78.379029,111.08674 c -3.3602,0 -6.08541,-2.72521 -6.08541,-6.08542 0,-3.38666 2.72521,-6.111869 6.08541,-6.111869 1.93146,0 3.78355,0.92604 4.92125,2.513539 l -1.16416,0.84667 c -0.87313,-1.19063 -2.27542,-1.905 -3.75709,-1.905 -2.54,0 -4.6302,2.09021 -4.6302,4.63021 0,2.56645 2.0902,4.6302 4.6302,4.6302 1.53459,0 2.96334,-0.76729 3.83646,-2.03729 l 1.21709,0.82021 c -1.13771,1.69333 -3.01625,2.69875 -5.05355,2.69875"
       id="path817" />
    <path
       style="fill:#ee8122;stroke-width:0.26458332"
       inkscape:connector-curvature="0"
       class="st0"
       d="m 76.500489,102.11737 c 0.39688,-0.0794 1.00542,-0.10584 1.66688,-0.10584 0.82021,0 1.40229,0.13229 1.79916,0.44979 0.34396,0.26459 0.52917,0.66146 0.52917,1.16417 0,0.71438 -0.50271,1.19063 -0.97896,1.37583 v 0.0265 c 0.39688,0.15875 0.60854,0.52917 0.74084,1.03188 0.1852,0.635 0.34395,1.34937 0.44979,1.5875 h -1.29646 c -0.0794,-0.15875 -0.21167,-0.60854 -0.37042,-1.29646 -0.15875,-0.71438 -0.39687,-0.87313 -0.92604,-0.89958 h -0.37042 v 2.19604 h -1.24354 z m 1.24354,2.38125 h 0.50271 c 0.635,0 1.00542,-0.3175 1.00542,-0.79375 0,-0.50271 -0.34396,-0.7673 -0.92604,-0.7673 -0.3175,0 -0.47625,0.0265 -0.58209,0.0529 z"
       id="path819" />
  </g>
</svg>
