<?xml version="1.0" encoding="utf-8"?>
<!-- Generator: Adobe Illustrator 24.1.1, SVG Export Plug-In . SVG Version: 6.00 Build 0)  -->
<svg version="1.1" id="Layer_1" xmlns="http://www.w3.org/2000/svg" xmlns:xlink="http://www.w3.org/1999/xlink" x="0px" y="0px"
	 viewBox="0 0 238.9 46.1" style="enable-background:new 0 0 238.9 46.1;" xml:space="preserve">
<style type="text/css">
	.st0{fill:#EE8122;}
</style>
<path class="st0" d="M23,46.1c-12.7,0-23-10.3-23-23C0,10.3,10.3,0,23,0c7.3,0,14.3,3.5,18.6,9.5l-4.4,3.2C33.9,8.2,28.6,5.5,23,5.5
	C13.4,5.5,5.5,13.4,5.5,23c0,9.7,7.9,17.5,17.5,17.5c5.8,0,11.2-2.9,14.5-7.7l4.6,3.1C37.8,42.3,30.7,46.1,23,46.1"/>
<path class="st0" d="M15.9,12.2c1.5-0.3,3.8-0.4,6.3-0.4c3.1,0,5.3,0.5,6.8,1.7c1.3,1,2,2.5,2,4.4c0,2.7-1.9,4.5-3.7,5.2v0.1
	c1.5,0.6,2.3,2,2.8,3.9c0.7,2.4,1.3,5.1,1.7,6h-4.9c-0.3-0.6-0.8-2.3-1.4-4.9c-0.6-2.7-1.5-3.3-3.5-3.4h-1.4v8.3h-4.7L15.9,12.2z
	 M20.6,21.2h1.9c2.4,0,3.8-1.2,3.8-3c0-1.9-1.3-2.9-3.5-2.9c-1.2,0-1.8,0.1-2.2,0.2L20.6,21.2z"/>
<path d="M58.6,31.9c-2.4,0-4.3-0.9-5.7-2.6s-2.1-3.9-2.1-6.5c0-2.2,0.4-4,1.2-5.5c1.4-2.6,3.8-4.2,6.6-4.2c1.7,0,3.4,0.5,4.5,1.4
	l-1.4,2c-1-0.7-2-1-3.1-1c-1.5,0-2.8,0.8-3.6,2.2c-0.6,1.1-0.9,2.6-0.9,4.8s0.2,3.5,0.7,4.5c0.8,1.7,2.3,2.6,4,2.6
	c1.3,0,2.2-0.3,3.2-1.2l1.4,1.9C62.1,31.4,60.5,31.9,58.6,31.9"/>
<path d="M72.4,20.8c-0.3-0.1-0.5-0.2-0.8-0.2c-1.2,0-2.2,0.9-2.5,2v9h-2.9v-9.4c0-1.7-0.2-2.8-0.5-3.6l2.6-0.7
	c0.3,0.6,0.5,1.4,0.5,2.1c1-1.4,2.1-2.1,3.4-2.1c0.4,0,0.7,0.1,1,0.2L72.4,20.8z"/>
<path d="M77.6,25.8V26c0,1.8,0.7,3.8,3.3,3.8c1.2,0,2.3-0.4,3.3-1.3l1.1,1.8c-1.4,1.2-3,1.8-4.7,1.8c-3.7,0-6.1-2.7-6.1-7
	c0-2.3,0.5-3.9,1.6-5.2c1.1-1.2,2.4-1.8,4-1.8c1.3,0,2.5,0.3,3.6,1.4s1.7,2.7,1.7,5.8v0.6h-7.8V25.8z M80.1,20.2
	c-1.6,0-2.5,1.3-2.5,3.4h4.9C82.5,21.5,81.6,20.2,80.1,20.2"/>
<path d="M97.5,32.2c-0.8-0.3-1.5-0.9-1.8-1.8c-1.1,1.2-2.2,1.6-3.6,1.6c-3,0-4.4-1.7-4.4-4c0-3.1,2.3-4.6,6.5-4.6h0.9v-0.7
	c0-1.5-0.3-2.3-1.8-2.3c-1.9,0-3.9,1.5-3.9,1.5l-1.3-2.1c2-1.3,3.6-1.8,5.6-1.8c2.1,0,3.4,0.8,4,2.2c0.2,0.6,0.2,1.3,0.2,3.3v3.8
	c0,1.8,0.1,2.4,1.1,3.1L97.5,32.2z M94.5,25.3c-2.9,0-3.7,0.8-3.7,2.5c0,1.3,0.7,2.1,1.8,2.1c0.9,0,1.8-0.6,2.4-1.4l0.1-3.2
	C95,25.4,94.7,25.3,94.5,25.3"/>
<path d="M105.7,32c-2.6,0-3.4-1.5-3.4-3.4v-8.2h-1.5v-2h1.5c0-1.1,0-2.3,0.1-3.3l2.9-0.7c-0.1,1.1-0.2,2.7-0.2,4h3.2l-0.8,2h-2.4
	v7.5c0,1.7,0.4,2.1,1.6,2.1c0.4,0,0.7-0.1,1.2-0.3l0.4,1.7C107.4,31.8,106.6,32,105.7,32"/>
<path d="M112.6,16.3c-1,0-1.8-0.9-1.8-1.9c0-1.1,0.8-1.9,1.9-1.9c1,0,1.9,0.8,1.9,1.9C114.5,15.5,113.7,16.3,112.6,16.3 M111.2,31.6
	V18.5L114,18v13.6H111.2z"/>
<path d="M132.3,31.6v-9.2c0-1.6-0.3-2-1.4-2c-1,0-1.9,0.7-2.8,1.5v9.7h-2.7v-9.1c0-1.6-0.3-2-1.4-2c-0.8,0-1.7,0.4-2.7,1.3v9.9h-2.8
	v-9.6c0-1.7-0.2-2.7-0.5-3.4l2.6-0.7c0.3,0.4,0.4,1,0.5,1.7c1-1.1,2.3-1.7,3.5-1.7s2.2,0.4,3.1,1.9c1.3-1.3,2.5-1.9,3.9-1.9
	c2.2,0,3.4,1.1,3.4,3.9v9.7L132.3,31.6z"/>
<g>
	<path class="st0" d="M143.6,31.9c1.2,0,2.2-0.9,2.2-2.1c0-1.2-1-2.2-2.1-2.2c-1.2,0-2.1,1-2.1,2.2C141.5,31,142.4,31.9,143.6,31.9z
		 M143.6,22.4c1.2,0,2.1-1,2.1-2.2c0-1.2-1-2.1-2.1-2.1c-1.2,0-2.1,1-2.1,2.2C141.5,21.5,142.4,22.4,143.6,22.4z"/>
	<path class="st0" d="M236.3,32.4c0.9,0,1.7-0.2,2.6-0.6l-0.4-1.7c-0.5,0.2-0.8,0.3-1.2,0.3c-1.3,0-1.6-0.5-1.6-2.1v-7.5h2.4l0.8-2
		h-3.2c0-1.3,0.1-2.9,0.2-4l-3,0.7c-0.1,1-0.1,2.2-0.1,3.3h-1.5v2h1.5V29C232.8,30.9,233.7,32.4,236.3,32.4z M226.5,24.1h-4.9
		c0-2.2,0.9-3.4,2.5-3.4C225.5,20.6,226.5,21.9,226.5,24.1z M224.5,32.4c1.8,0,3.4-0.6,4.8-1.8l-1.1-1.8c-1,0.9-2.1,1.3-3.3,1.3
		c-2.6,0-3.3-1.9-3.3-3.8v-0.2h7.9v-0.6c0-3.1-0.6-4.7-1.7-5.8c-1.1-1-2.3-1.4-3.7-1.4c-1.7,0-3,0.6-4.1,1.8
		c-1.2,1.3-1.7,2.9-1.7,5.2C218.3,29.7,220.7,32.4,224.5,32.4z M214.7,32.4c0.7,0,1.2-0.1,1.7-0.3l-0.5-1.8c-0.3,0.2-0.8,0-0.9-0.2
		c-0.2-0.3-0.3-0.6-0.3-2.2l0-11.4c0-1.7,0-2.8-0.2-3.7l-3,0.7c0.2,1.1,0.3,2.1,0.3,3.9l0,11.5C211.8,29.9,211.9,32.4,214.7,32.4z
		 M208.1,26.3v-2.7h-5.8v2.7H208.1z M192.1,30.2c-3.1,0-4.3-2.1-4.3-7.6c0-4.8,1.6-6.6,4.2-6.6c2.9,0,4.2,2.2,4.2,7.5
		C196.2,28.2,194.9,30.2,192.1,30.2z M192.1,32.7c4.3,0,7.2-3.5,7.2-9.5c0-6.1-2.7-9.6-7.2-9.6c-4.3,0-7.2,3.5-7.2,9.5
		C184.8,29.1,187.5,32.7,192.1,32.7z M182.2,32.1l0.5-2.4h-6.6c-1.1,0-2.2,0.1-3.4,0.2c2.4-2,3.8-3.2,4.5-3.8
		c2.8-2.5,4.8-4.3,4.8-7.6c0-3.6-2.4-5.3-5.8-5.3c-3.1,0-4.7,1.2-6.8,3.3l1.1,1.6c1.9-1.6,3.2-2.3,5-2.3c2.1,0,3.2,1.2,3.2,3.3
		c0,2.2-1.1,3.5-2.6,4.9c-2.1,1.9-4.2,3.8-6.2,5.9v2.3H182.2z"/>
	<path class="st0" d="M159.4,34.6l7-24.1h-2.3l-7,24.1H159.4z M152.4,34.6l7-24.1h-2.3l-7,24.1H152.4z"/>
</g>
</svg>
