<?xml version="1.0" encoding="UTF-8" standalone="no"?>
<!-- Created with Inkscape (http://www.inkscape.org/) -->

<svg
   xmlns:osb="http://www.openswatchbook.org/uri/2009/osb"
   xmlns:dc="http://purl.org/dc/elements/1.1/"
   xmlns:cc="http://creativecommons.org/ns#"
   xmlns:rdf="http://www.w3.org/1999/02/22-rdf-syntax-ns#"
   xmlns:svg="http://www.w3.org/2000/svg"
   xmlns="http://www.w3.org/2000/svg"
   xmlns:sodipodi="http://sodipodi.sourceforge.net/DTD/sodipodi-0.dtd"
   xmlns:inkscape="http://www.inkscape.org/namespaces/inkscape"
   width="63.208958mm"
   height="12.197291mm"
   viewBox="0 0 63.208958 12.197291"
   version="1.1"
   id="svg8"
   inkscape:version="0.92.4 (5da689c313, 2019-01-14)"
   sodipodi:docname="creatim.dark.logo.svg">
  <defs
     id="defs2">
    <linearGradient
       id="linearGradient2452"
       osb:paint="solid">
      <stop
         style="stop-color:#000000;stop-opacity:1;"
         offset="0"
         id="stop2450" />
    </linearGradient>
    <linearGradient
       id="linearGradient868"
       osb:paint="solid">
      <stop
         style="stop-color:#000000;stop-opacity:1;"
         offset="0"
         id="stop866" />
    </linearGradient>
  </defs>
  <sodipodi:namedview
     id="base"
     pagecolor="#ffffff"
     bordercolor="#666666"
     borderopacity="1.0"
     inkscape:pageopacity="0.0"
     inkscape:pageshadow="2"
     inkscape:zoom="5.6"
     inkscape:cx="119.84415"
     inkscape:cy="40.086395"
     inkscape:document-units="mm"
     inkscape:current-layer="g864"
     showgrid="false"
     inkscape:window-width="1920"
     inkscape:window-height="1017"
     inkscape:window-x="-8"
     inkscape:window-y="-8"
     inkscape:window-maximized="1" />
  <metadata
     id="metadata5">
    <rdf:RDF>
      <cc:Work
         rdf:about="">
        <dc:format>image/svg+xml</dc:format>
        <dc:type
           rdf:resource="http://purl.org/dc/dcmitype/StillImage" />
        <dc:title></dc:title>
      </cc:Work>
    </rdf:RDF>
  </metadata>
  <g
     inkscape:label="Layer 1"
     inkscape:groupmode="layer"
     id="layer1"
     transform="translate(-44.746712,-161.6335)">
    <g
       id="g864"
       transform="matrix(0.26458333,0,0,0.26458333,44.746712,161.6335)">
      <path
         id="path817"
         d="M 23,46.1 C 10.3,46.1 0,35.8 0,23.1 0,10.3 10.3,0 23,0 30.3,0 37.3,3.5 41.6,9.5 l -4.4,3.2 C 33.9,8.2 28.6,5.5 23,5.5 13.4,5.5 5.5,13.4 5.5,23 c 0,9.7 7.9,17.5 17.5,17.5 5.8,0 11.2,-2.9 14.5,-7.7 l 4.6,3.1 C 37.8,42.3 30.7,46.1 23,46.1"
         class="st0"
         inkscape:connector-curvature="0"
         style="fill:#ee8122" />
      <path
         id="path819"
         d="m 15.9,12.2 c 1.5,-0.3 3.8,-0.4 6.3,-0.4 3.1,0 5.3,0.5 6.8,1.7 1.3,1 2,2.5 2,4.4 0,2.7 -1.9,4.5 -3.7,5.2 v 0.1 c 1.5,0.6 2.3,2 2.8,3.9 0.7,2.4 1.3,5.1 1.7,6 H 26.9 C 26.6,32.5 26.1,30.8 25.5,28.2 24.9,25.5 24,24.9 22,24.8 h -1.4 v 8.3 h -4.7 z m 4.7,9 h 1.9 c 2.4,0 3.8,-1.2 3.8,-3 0,-1.9 -1.3,-2.9 -3.5,-2.9 -1.2,0 -1.8,0.1 -2.2,0.2 z"
         class="st0"
         inkscape:connector-curvature="0"
         style="fill:#ee8122" />
      <path
         id="path821"
         d="m 58.6,31.9 c -2.4,0 -4.3,-0.9 -5.7,-2.6 -1.4,-1.7 -2.1,-3.9 -2.1,-6.5 0,-2.2 0.4,-4 1.2,-5.5 1.4,-2.6 3.8,-4.2 6.6,-4.2 1.7,0 3.4,0.5 4.5,1.4 l -1.4,2 c -1,-0.7 -2,-1 -3.1,-1 -1.5,0 -2.8,0.8 -3.6,2.2 -0.6,1.1 -0.9,2.6 -0.9,4.8 0,2.2 0.2,3.5 0.7,4.5 0.8,1.7 2.3,2.6 4,2.6 1.3,0 2.2,-0.3 3.2,-1.2 l 1.4,1.9 c -1.3,1.1 -2.9,1.6 -4.8,1.6"
         inkscape:connector-curvature="0"
         style="fill-opacity:1;fill:#ffffff;stroke:none;stroke-opacity:1" />
      <path
         id="path823"
         d="m 72.4,20.8 c -0.3,-0.1 -0.5,-0.2 -0.8,-0.2 -1.2,0 -2.2,0.9 -2.5,2 v 9 h -2.9 v -9.4 c 0,-1.7 -0.2,-2.8 -0.5,-3.6 l 2.6,-0.7 c 0.3,0.6 0.5,1.4 0.5,2.1 1,-1.4 2.1,-2.1 3.4,-2.1 0.4,0 0.7,0.1 1,0.2 z"
         inkscape:connector-curvature="0"
         style="fill-opacity:1;fill:#ffffff;stroke:none;stroke-opacity:1" />
      <path
         id="path825"
         d="M 77.6,25.8 V 26 c 0,1.8 0.7,3.8 3.3,3.8 1.2,0 2.3,-0.4 3.3,-1.3 l 1.1,1.8 c -1.4,1.2 -3,1.8 -4.7,1.8 -3.7,0 -6.1,-2.7 -6.1,-7 0,-2.3 0.5,-3.9 1.6,-5.2 1.1,-1.2 2.4,-1.8 4,-1.8 1.3,0 2.5,0.3 3.6,1.4 1.1,1.1 1.7,2.7 1.7,5.8 v 0.6 h -7.8 z m 2.5,-5.6 c -1.6,0 -2.5,1.3 -2.5,3.4 h 4.9 c 0,-2.1 -0.9,-3.4 -2.4,-3.4"
         inkscape:connector-curvature="0"
         style="fill-opacity:1;fill:#ffffff;stroke:none;stroke-opacity:1" />
      <path
         id="path827"
         d="M 97.5,32.2 C 96.7,31.9 96,31.3 95.7,30.4 94.6,31.6 93.5,32 92.1,32 c -3,0 -4.4,-1.7 -4.4,-4 0,-3.1 2.3,-4.6 6.5,-4.6 h 0.9 v -0.7 c 0,-1.5 -0.3,-2.3 -1.8,-2.3 -1.9,0 -3.9,1.5 -3.9,1.5 l -1.3,-2.1 c 2,-1.3 3.6,-1.8 5.6,-1.8 2.1,0 3.4,0.8 4,2.2 0.2,0.6 0.2,1.3 0.2,3.3 v 3.8 c 0,1.8 0.1,2.4 1.1,3.1 z m -3,-6.9 c -2.9,0 -3.7,0.8 -3.7,2.5 0,1.3 0.7,2.1 1.8,2.1 0.9,0 1.8,-0.6 2.4,-1.4 l 0.1,-3.2 c -0.1,0.1 -0.4,0 -0.6,0"
         inkscape:connector-curvature="0"
         style="fill-opacity:1;fill:#ffffff;stroke:none;stroke-opacity:1" />
      <path
         id="path829"
         d="m 105.7,32 c -2.6,0 -3.4,-1.5 -3.4,-3.4 v -8.2 h -1.5 v -2 h 1.5 c 0,-1.1 0,-2.3 0.1,-3.3 l 2.9,-0.7 c -0.1,1.1 -0.2,2.7 -0.2,4 h 3.2 l -0.8,2 h -2.4 v 7.5 c 0,1.7 0.4,2.1 1.6,2.1 0.4,0 0.7,-0.1 1.2,-0.3 l 0.4,1.7 c -0.9,0.4 -1.7,0.6 -2.6,0.6"
         inkscape:connector-curvature="0"
         style="fill-opacity:1;fill:#ffffff;stroke:none;stroke-opacity:1" />
      <path
         id="path831"
         d="m 112.6,16.3 c -1,0 -1.8,-0.9 -1.8,-1.9 0,-1.1 0.8,-1.9 1.9,-1.9 1,0 1.9,0.8 1.9,1.9 -0.1,1.1 -0.9,1.9 -2,1.9 m -1.4,15.3 V 18.5 L 114,18 v 13.6 z"
         inkscape:connector-curvature="0"
         style="fill-opacity:1;fill:#ffffff;stroke:none;stroke-opacity:1" />
      <path
         id="path833"
         d="m 132.3,31.6 v -9.2 c 0,-1.6 -0.3,-2 -1.4,-2 -1,0 -1.9,0.7 -2.8,1.5 v 9.7 h -2.7 v -9.1 c 0,-1.6 -0.3,-2 -1.4,-2 -0.8,0 -1.7,0.4 -2.7,1.3 v 9.9 h -2.8 v -9.6 c 0,-1.7 -0.2,-2.7 -0.5,-3.4 l 2.6,-0.7 c 0.3,0.4 0.4,1 0.5,1.7 1,-1.1 2.3,-1.7 3.5,-1.7 1.2,0 2.2,0.4 3.1,1.9 1.3,-1.3 2.5,-1.9 3.9,-1.9 2.2,0 3.4,1.1 3.4,3.9 v 9.7 z"
         inkscape:connector-curvature="0"
         style="fill-opacity:1;fill:#ffffff;stroke:none;stroke-opacity:1" />
      <g
         id="g841">
	<path
   id="path835"
   d="m 143.6,31.9 c 1.2,0 2.2,-0.9 2.2,-2.1 0,-1.2 -1,-2.2 -2.1,-2.2 -1.2,0 -2.1,1 -2.1,2.2 -0.1,1.2 0.8,2.1 2,2.1 z m 0,-9.5 c 1.2,0 2.1,-1 2.1,-2.2 0,-1.2 -1,-2.1 -2.1,-2.1 -1.2,0 -2.1,1 -2.1,2.2 0,1.2 0.9,2.1 2.1,2.1 z"
   class="st0"
   inkscape:connector-curvature="0"
   style="fill:#ee8122" />

	<path
   id="path837"
   d="m 236.3,32.4 c 0.9,0 1.7,-0.2 2.6,-0.6 l -0.4,-1.7 c -0.5,0.2 -0.8,0.3 -1.2,0.3 -1.3,0 -1.6,-0.5 -1.6,-2.1 v -7.5 h 2.4 l 0.8,-2 h -3.2 c 0,-1.3 0.1,-2.9 0.2,-4 l -3,0.7 c -0.1,1 -0.1,2.2 -0.1,3.3 h -1.5 v 2 h 1.5 V 29 c 0,1.9 0.9,3.4 3.5,3.4 z m -9.8,-8.3 h -4.9 c 0,-2.2 0.9,-3.4 2.5,-3.4 1.4,-0.1 2.4,1.2 2.4,3.4 z m -2,8.3 c 1.8,0 3.4,-0.6 4.8,-1.8 l -1.1,-1.8 c -1,0.9 -2.1,1.3 -3.3,1.3 -2.6,0 -3.3,-1.9 -3.3,-3.8 v -0.2 h 7.9 v -0.6 c 0,-3.1 -0.6,-4.7 -1.7,-5.8 -1.1,-1 -2.3,-1.4 -3.7,-1.4 -1.7,0 -3,0.6 -4.1,1.8 -1.2,1.3 -1.7,2.9 -1.7,5.2 0,4.4 2.4,7.1 6.2,7.1 z m -9.8,0 c 0.7,0 1.2,-0.1 1.7,-0.3 l -0.5,-1.8 c -0.3,0.2 -0.8,0 -0.9,-0.2 -0.2,-0.3 -0.3,-0.6 -0.3,-2.2 V 16.5 c 0,-1.7 0,-2.8 -0.2,-3.7 l -3,0.7 c 0.2,1.1 0.3,2.1 0.3,3.9 v 11.5 c 0,1 0.1,3.5 2.9,3.5 z m -6.6,-6.1 v -2.7 h -5.8 v 2.7 z m -16,3.9 c -3.1,0 -4.3,-2.1 -4.3,-7.6 0,-4.8 1.6,-6.6 4.2,-6.6 2.9,0 4.2,2.2 4.2,7.5 0,4.7 -1.3,6.7 -4.1,6.7 z m 0,2.5 c 4.3,0 7.2,-3.5 7.2,-9.5 0,-6.1 -2.7,-9.6 -7.2,-9.6 -4.3,0 -7.2,3.5 -7.2,9.5 -0.1,6 2.6,9.6 7.2,9.6 z m -9.9,-0.6 0.5,-2.4 h -6.6 c -1.1,0 -2.2,0.1 -3.4,0.2 2.4,-2 3.8,-3.2 4.5,-3.8 2.8,-2.5 4.8,-4.3 4.8,-7.6 0,-3.6 -2.4,-5.3 -5.8,-5.3 -3.1,0 -4.7,1.2 -6.8,3.3 l 1.1,1.6 c 1.9,-1.6 3.2,-2.3 5,-2.3 2.1,0 3.2,1.2 3.2,3.3 0,2.2 -1.1,3.5 -2.6,4.9 -2.1,1.9 -4.2,3.8 -6.2,5.9 v 2.3 h 12.3 z"
   class="st0"
   inkscape:connector-curvature="0"
   style="fill:#ee8122" />

	<path
   id="path839"
   d="m 159.4,34.6 7,-24.1 h -2.3 l -7,24.1 z m -7,0 7,-24.1 h -2.3 l -7,24.1 z"
   class="st0"
   inkscape:connector-curvature="0"
   style="fill:#ee8122" />

</g>
    </g>
  </g>
  <style
     id="style815"
     type="text/css">
	.st0{fill:#EE8122;}
</style>
</svg>
